<svg version="1.1" id="Layer_1" xmlns="http://www.w3.org/2000/svg" xmlns:xlink="http://www.w3.org/1999/xlink" x="0px" y="0px"
	 width="100%" viewBox="0 0 343 343" enable-background="new 0 0 343 343" xml:space="preserve">
<path fill="#000000" opacity="1.000000" stroke="none" 
	d="
M222.000000,344.000000 
	C148.000015,344.000000 74.500023,344.000000 1.000030,344.000000 
	C1.000020,229.666702 1.000020,115.333397 1.000010,1.000076 
	C115.333282,1.000050 229.666565,1.000050 343.999878,1.000025 
	C343.999939,115.333260 343.999939,229.666519 343.999969,343.999878 
	C303.500000,344.000000 263.000000,344.000000 222.000000,344.000000 
M338.968384,221.007751 
	C338.968384,221.007751 339.012878,220.998764 339.069153,220.180359 
	C338.139587,216.496490 337.252960,212.801163 336.273773,209.130539 
	C326.836517,173.753876 317.445892,138.364380 307.794250,103.046227 
	C307.155243,100.707962 304.903442,98.055687 302.707977,97.019714 
	C288.188843,90.168564 273.479828,83.719734 258.176697,76.740532 
	C256.655792,76.733818 255.052322,76.404884 253.626770,76.770218 
	C239.278275,80.447365 224.948257,84.198151 210.634064,88.007202 
	C191.457977,93.110031 172.290009,98.244133 153.138687,103.439034 
	C140.418655,106.889389 127.753250,110.541451 115.029037,113.975952 
	C92.092896,120.166847 69.140121,126.296806 46.174641,132.377991 
	C38.625191,134.377060 30.987097,136.042038 23.441174,138.053482 
	C17.252890,139.703049 11.141189,141.639923 4.995539,143.449432 
	C4.747979,143.951324 4.500419,144.453217 4.252858,144.955109 
	C13.011057,152.357880 21.523275,160.081848 30.617298,167.046112 
	C36.310795,171.406219 43.299480,172.136673 50.328735,170.289337 
	C85.575890,161.026230 120.812859,151.724350 156.056107,142.446365 
	C162.355423,140.788040 168.508408,143.235367 171.873016,148.339050 
	C173.747284,151.182068 173.098740,152.238647 169.929550,153.041275 
	C159.218704,155.753891 148.560226,158.674469 137.891571,161.552078 
	C124.098526,165.272385 110.319176,169.043549 96.523727,172.754898 
	C93.770699,173.495544 90.971764,174.065536 86.707802,175.061295 
	C96.211540,183.518951 104.345894,191.541901 113.319031,198.480057 
	C119.780838,203.476425 127.977356,204.472107 135.921204,202.504349 
	C153.573044,198.131821 171.104553,193.275330 188.701965,188.680664 
	C196.047302,186.762802 202.335571,190.327164 204.819519,197.991348 
	C189.683624,202.164200 174.559555,206.333801 158.980087,210.628952 
	C161.454941,219.421738 163.770935,227.650040 165.900467,236.429230 
	C167.568054,237.792206 169.034973,239.621536 170.936874,240.439957 
	C180.847504,244.704666 190.999069,248.425934 200.813614,252.892624 
	C209.967377,257.058563 219.231537,257.000336 228.557922,254.611954 
	C249.833374,249.163528 271.029053,243.403152 292.251129,237.747025 
	C305.755615,234.147797 319.274445,230.597290 332.727509,226.814026 
	C335.524658,226.027405 339.388123,226.230927 339.721802,221.504532 
	C339.521729,221.260590 339.275269,221.079956 338.968384,221.007751 
z"/>
<path fill="#1E81D2" opacity="1.000000" stroke="none" 
	d="
M166.086914,235.878342 
	C163.770935,227.650040 161.454941,219.421738 158.980087,210.628952 
	C174.559555,206.333801 189.683624,202.164200 204.819519,197.991348 
	C202.335571,190.327164 196.047302,186.762802 188.701965,188.680664 
	C171.104553,193.275330 153.573044,198.131821 135.921204,202.504349 
	C127.977356,204.472107 119.780838,203.476425 113.319031,198.480057 
	C104.345894,191.541901 96.211540,183.518951 86.707802,175.061295 
	C90.971764,174.065536 93.770699,173.495544 96.523727,172.754898 
	C110.319176,169.043549 124.098526,165.272385 137.891571,161.552078 
	C148.560226,158.674469 159.218704,155.753891 169.929550,153.041275 
	C173.098740,152.238647 173.747284,151.182068 171.873016,148.339050 
	C168.508408,143.235367 162.355423,140.788040 156.056107,142.446365 
	C120.812859,151.724350 85.575890,161.026230 50.328735,170.289337 
	C43.299480,172.136673 36.310795,171.406219 30.617298,167.046112 
	C21.523275,160.081848 13.011057,152.357880 4.252858,144.955109 
	C4.500419,144.453217 4.747979,143.951324 4.995539,143.449432 
	C11.141189,141.639923 17.252890,139.703049 23.441174,138.053482 
	C30.987097,136.042038 38.625191,134.377060 46.174641,132.377991 
	C69.140121,126.296806 92.092896,120.166847 115.029037,113.975952 
	C127.753250,110.541451 140.418655,106.889389 153.138687,103.439034 
	C172.290009,98.244133 191.457977,93.110031 210.634064,88.007202 
	C224.948257,84.198151 239.278275,80.447365 253.626770,76.770218 
	C255.052322,76.404884 256.655792,76.733818 258.582031,77.321968 
	C269.577515,116.809654 280.181061,155.712265 290.725037,194.631027 
	C291.368256,197.005096 291.539764,199.506973 291.544220,202.002686 
	C286.182587,203.389679 281.204681,204.713028 276.232849,206.058701 
	C239.516846,215.996063 202.802078,225.937897 166.086914,235.878342 
M200.982147,95.521858 
	C194.249008,97.452927 187.515869,99.383995 180.850388,101.295662 
	C182.201782,106.793411 183.250290,111.359215 184.453873,115.883751 
	C186.184677,122.390259 186.623825,122.464409 191.584702,117.868759 
	C195.961487,113.814194 200.296295,110.109283 207.126236,112.858948 
	C209.995468,114.014069 213.441833,113.735641 217.281891,114.185822 
	C216.159042,109.830498 215.227692,106.252487 214.314606,102.669823 
	C211.709229,92.447151 211.712158,92.446404 200.982147,95.521858 
z"/>
<path fill="#0C3252" opacity="1.000000" stroke="none" 
	d="
M291.930756,201.949387 
	C291.539764,199.506973 291.368256,197.005096 290.725037,194.631027 
	C280.181061,155.712265 269.577515,116.809654 258.910034,77.521652 
	C273.479828,83.719734 288.188843,90.168564 302.707977,97.019714 
	C304.903442,98.055687 307.155243,100.707962 307.794250,103.046227 
	C317.445892,138.364380 326.836517,173.753876 336.273773,209.130539 
	C337.252960,212.801163 338.139587,216.496490 338.652771,220.640884 
	C333.174835,219.086426 328.086548,217.135773 323.057373,215.043015 
	C312.665131,210.718552 302.304443,206.318405 291.930756,201.949387 
z"/>
<path fill="#040D15" opacity="1.000000" stroke="none" 
	d="
M291.544220,202.002686 
	C302.304443,206.318405 312.665131,210.718552 323.057373,215.043015 
	C328.086548,217.135773 333.174835,219.086426 338.624634,221.050079 
	C339.012878,220.998764 338.968384,221.007751 339.092926,221.182816 
	C339.417389,221.597824 339.659973,221.781357 339.945251,221.908508 
	C339.388123,226.230927 335.524658,226.027405 332.727509,226.814026 
	C319.274445,230.597290 305.755615,234.147797 292.251129,237.747025 
	C271.029053,243.403152 249.833374,249.163528 228.557922,254.611954 
	C219.231537,257.000336 209.967377,257.058563 200.813614,252.892624 
	C190.999069,248.425934 180.847504,244.704666 170.936874,240.439957 
	C169.034973,239.621536 167.568054,237.792206 165.993683,236.153778 
	C202.802078,225.937897 239.516846,215.996063 276.232849,206.058701 
	C281.204681,204.713028 286.182587,203.389679 291.544220,202.002686 
z"/>
<path fill="#0C3252" opacity="1.000000" stroke="none" 
	d="
M339.833527,221.706512 
	C339.659973,221.781357 339.417389,221.597824 339.099945,221.160248 
	C339.275269,221.079956 339.521729,221.260590 339.833527,221.706512 
z"/>
<path fill="#000000" opacity="1.000000" stroke="none" 
	d="
M201.340729,95.311340 
	C211.712158,92.446404 211.709229,92.447151 214.314606,102.669823 
	C215.227692,106.252487 216.159042,109.830498 217.281891,114.185822 
	C213.441833,113.735641 209.995468,114.014069 207.126236,112.858948 
	C200.296295,110.109283 195.961487,113.814194 191.584702,117.868759 
	C186.623825,122.464409 186.184677,122.390259 184.453873,115.883751 
	C183.250290,111.359215 182.201782,106.793411 180.850388,101.295662 
	C187.515869,99.383995 194.249008,97.452927 201.340729,95.311340 
z"/>
</svg>